<svg width="128" height="128" viewBox="0 0 128 128" fill="none" xmlns="http://www.w3.org/2000/svg">
  <defs>
    <linearGradient id="tile" x1="22" y1="16" x2="106" y2="112" gradientUnits="userSpaceOnUse">
      <stop offset="0" stop-color="#F7F9FF"/>
      <stop offset="1" stop-color="#EEF3FF"/>
    </linearGradient>
    <linearGradient id="route" x1="33" y1="34" x2="90" y2="92" gradientUnits="userSpaceOnUse">
      <stop offset="0" stop-color="#5E6AD2"/>
      <stop offset="1" stop-color="#44BBA4"/>
    </linearGradient>
    <filter id="shadow" x="12" y="10" width="104" height="110" filterUnits="userSpaceOnUse" color-interpolation-filters="sRGB">
      <feFlood flood-opacity="0" result="BackgroundImageFix"/>
      <feColorMatrix in="SourceAlpha" type="matrix" values="0 0 0 0 0 0 0 0 0 0 0 0 0 0 0 0 0 0 127 0" result="hardAlpha"/>
      <feOffset dy="10"/>
      <feGaussianBlur stdDeviation="8"/>
      <feComposite in2="hardAlpha" operator="out"/>
      <feColorMatrix type="matrix" values="0 0 0 0 0.243137 0 0 0 0 0.294118 0 0 0 0 0.545098 0 0 0 0.14 0"/>
      <feBlend mode="normal" in2="BackgroundImageFix" result="effect1_dropShadow_1_1"/>
      <feBlend mode="normal" in="SourceGraphic" in2="effect1_dropShadow_1_1" result="shape"/>
    </filter>
  </defs>

  <g filter="url(#shadow)">
    <rect x="20" y="16" width="88" height="88" rx="26" fill="url(#tile)"/>
    <rect x="20.75" y="16.75" width="86.5" height="86.5" rx="25.25" stroke="#DDE5FF" stroke-width="1.5"/>

    <path d="M38 38H59C65.6274 38 71 43.3726 71 50V64" stroke="url(#route)" stroke-width="9" stroke-linecap="round" stroke-linejoin="round"/>
    <path d="M38 82H59C65.6274 82 71 76.6274 71 70V64" stroke="url(#route)" stroke-width="9" stroke-linecap="round" stroke-linejoin="round"/>
    <path d="M71 64H88" stroke="url(#route)" stroke-width="9" stroke-linecap="round"/>

    <circle cx="38" cy="38" r="6" fill="#F2A34B"/>
    <circle cx="38" cy="82" r="6" fill="#6B7AF2"/>
    <circle cx="90" cy="64" r="7" fill="#44BBA4"/>
    <circle cx="71" cy="64" r="10" fill="#FFFFFF" stroke="#C9D5FF" stroke-width="5"/>
    <path d="M68 64H74" stroke="#5E6AD2" stroke-width="3.5" stroke-linecap="round"/>
    <path d="M71 61V67" stroke="#5E6AD2" stroke-width="3.5" stroke-linecap="round"/>
  </g>
</svg>
